<svg xmlns="http://www.w3.org/2000/svg" viewBox="0 0 192 192" width="192" height="192">
  <defs>
    <clipPath id="c"><rect width="192" height="192" rx="42"/></clipPath>
  </defs>
  <!-- Blue background -->
  <rect width="192" height="192" rx="42" fill="#1565c0"/>
  <!-- Orange diagonal zone -->
  <polygon points="192,60 192,192 60,192" fill="#f05d14" clip-path="url(#c)"/>
  <!-- City silhouette -->
  <rect x="8"  y="78"  width="18" height="54" fill="#0d47a1" clip-path="url(#c)"/>
  <rect x="22" y="60"  width="15" height="72" fill="#0d47a1" clip-path="url(#c)"/>
  <rect x="35" y="84"  width="12" height="48" fill="#0d47a1" clip-path="url(#c)"/>
  <rect x="44" y="72"  width="10" height="60" fill="#0d47a1" clip-path="url(#c)"/>
  <!-- Route line -->
  <path d="M42 144 Q80 118 148 80" stroke="white"   stroke-width="21" fill="none" stroke-linecap="round" clip-path="url(#c)"/>
  <path d="M42 144 Q80 118 148 80" stroke="#f05d14" stroke-width="13" fill="none" stroke-linecap="round" clip-path="url(#c)"/>
  <!-- Route endpoint dots -->
  <circle cx="42"  cy="144" r="15" fill="white"   clip-path="url(#c)"/>
  <circle cx="42"  cy="144" r="9"  fill="#f05d14" clip-path="url(#c)"/>
  <circle cx="148" cy="80"  r="12" fill="white"   clip-path="url(#c)"/>
  <circle cx="148" cy="80"  r="7"  fill="#f05d14" clip-path="url(#c)"/>
  <!-- Map pin (teardrop, white outline) -->
  <path d="M93 18 C68 18 49 37 49 62 C49 92 93 138 93 138 C93 138 137 92 137 62 C137 37 118 18 93 18Z" fill="white" clip-path="url(#c)"/>
  <path d="M93 26 C72 26 57 41 57 62 C57 88 93 128 93 128 C93 128 129 88 129 62 C129 41 114 26 93 26Z" fill="#f05d14" clip-path="url(#c)"/>
  <!-- Pin inner circle -->
  <circle cx="93" cy="62" r="19" fill="white"   clip-path="url(#c)"/>
  <circle cx="93" cy="62" r="11" fill="#1565c0" clip-path="url(#c)"/>
</svg>
